<svg id="visual" viewBox="0 0 900 900" width="900" height="900" xmlns="http://www.w3.org/2000/svg" xmlns:xlink="http://www.w3.org/1999/xlink" version="1.1"><rect x="0" y="0" width="900" height="900" fill="#009473"></rect><g transform="translate(476.7210502558634 439.1442672043595)"><path d="M166.3 -274.2C219 -257.7 267.6 -220.1 299.5 -170.9C331.4 -121.7 346.7 -60.8 337.9 -5.1C329.1 50.7 296.2 101.3 270.7 161.7C245.2 222 227.1 292 183.2 318.3C139.3 344.7 69.7 327.3 -2.7 332C-75 336.6 -150 363.1 -209.9 346.1C-269.8 329 -314.6 268.2 -348.6 203.3C-382.6 138.3 -405.8 69.2 -387.2 10.8C-368.6 -47.7 -308.1 -95.3 -272.9 -158.1C-237.6 -220.9 -227.6 -298.8 -186.3 -321.9C-145 -344.9 -72.5 -313.1 -7.8 -299.5C56.8 -285.9 113.7 -290.6 166.3 -274.2" fill="#001220"></path></g></svg>