<svg id="visual" viewBox="0 0 900 900" width="900" height="900" xmlns="http://www.w3.org/2000/svg" xmlns:xlink="http://www.w3.org/1999/xlink" version="1.1"><rect x="0" y="0" width="900" height="900" fill="#009473"></rect><g transform="translate(448.6754554271158 398.43409006456966)"><path d="M148 -256.1C194.1 -229.8 235.2 -194.7 277.2 -150.5C319.2 -106.3 362.1 -53.2 371 5.2C380 63.5 355 127 322.6 187.9C290.3 248.8 250.7 307.1 195.7 350.4C140.7 393.6 70.3 421.8 11.7 401.5C-46.9 381.2 -93.8 312.4 -149.6 269.6C-205.5 226.9 -270.3 210.2 -310.7 169.6C-351.1 129 -367.1 64.5 -369.8 -1.6C-372.5 -67.7 -362.1 -135.3 -326.2 -183.8C-290.4 -232.3 -229.2 -261.7 -170.6 -280.7C-112 -299.7 -56 -308.3 -2.5 -304C51 -299.7 102 -282.3 148 -256.1" fill="#001220"></path></g></svg>