<svg id="visual" viewBox="0 0 900 900" width="900" height="900" xmlns="http://www.w3.org/2000/svg" xmlns:xlink="http://www.w3.org/1999/xlink" version="1.1"><rect x="0" y="0" width="900" height="900" fill="#009473"></rect><g transform="translate(439.0946057738547 475.81625908006254)"><path d="M195.3 -347C247 -308.5 278.5 -243.8 317.6 -181.5C356.7 -119.3 403.3 -59.7 414.7 6.6C426.2 72.8 402.3 145.7 363.1 207.6C323.8 269.5 269.2 320.5 206.1 332.3C143 344 71.5 316.5 8.6 301.6C-54.3 286.8 -108.7 284.5 -166.4 269.7C-224.1 254.9 -285.3 227.4 -331.3 180.4C-377.3 133.3 -408.1 66.7 -391 9.9C-373.8 -46.8 -308.6 -93.7 -258.8 -134.3C-209.1 -174.9 -174.9 -209.2 -134.3 -254.1C-93.8 -299.1 -46.9 -354.5 12.5 -376.1C71.8 -397.8 143.7 -385.5 195.3 -347" fill="#001220"></path></g></svg>