<svg id="visual" viewBox="0 0 900 80" width="900" height="80" xmlns="http://www.w3.org/2000/svg" xmlns:xlink="http://www.w3.org/1999/xlink" version="1.1"><path d="M0 11L10 11.5C20 12 40 13 60 11.8C80 10.7 100 7.3 120 7.5C140 7.7 160 11.3 180 13.2C200 15 220 15 240 13.3C260 11.7 280 8.3 300 7.8C320 7.3 340 9.7 360 9.7C380 9.7 400 7.3 420 7C440 6.7 460 8.3 480 10C500 11.7 520 13.3 540 12.5C560 11.7 580 8.3 600 8.3C620 8.3 640 11.7 660 11.7C680 11.7 700 8.3 720 7.5C740 6.7 760 8.3 780 9.5C800 10.7 820 11.3 840 10.2C860 9 880 6 890 4.5L900 3L900 0L890 0C880 0 860 0 840 0C820 0 800 0 780 0C760 0 740 0 720 0C700 0 680 0 660 0C640 0 620 0 600 0C580 0 560 0 540 0C520 0 500 0 480 0C460 0 440 0 420 0C400 0 380 0 360 0C340 0 320 0 300 0C280 0 260 0 240 0C220 0 200 0 180 0C160 0 140 0 120 0C100 0 80 0 60 0C40 0 20 0 10 0L0 0Z" fill="#009473"></path><path d="M0 33L10 33C20 33 40 33 60 32.2C80 31.3 100 29.7 120 30.8C140 32 160 36 180 37.2C200 38.3 220 36.7 240 32C260 27.3 280 19.7 300 17.7C320 15.7 340 19.3 360 21.7C380 24 400 25 420 26.3C440 27.7 460 29.3 480 29.2C500 29 520 27 540 26.3C560 25.7 580 26.3 600 25.8C620 25.3 640 23.7 660 25C680 26.3 700 30.7 720 32.8C740 35 760 35 780 33.3C800 31.7 820 28.3 840 28.5C860 28.7 880 32.3 890 34.2L900 36L900 1L890 2.5C880 4 860 7 840 8.2C820 9.3 800 8.7 780 7.5C760 6.3 740 4.7 720 5.5C700 6.3 680 9.7 660 9.7C640 9.7 620 6.3 600 6.3C580 6.3 560 9.7 540 10.5C520 11.3 500 9.7 480 8C460 6.3 440 4.7 420 5C400 5.3 380 7.7 360 7.7C340 7.7 320 5.3 300 5.8C280 6.3 260 9.7 240 11.3C220 13 200 13 180 11.2C160 9.3 140 5.7 120 5.5C100 5.3 80 8.7 60 9.8C40 11 20 10 10 9.5L0 9Z" fill="#007975"></path><path d="M0 44L10 42.8C20 41.7 40 39.3 60 39.2C80 39 100 41 120 42.3C140 43.7 160 44.3 180 45C200 45.7 220 46.3 240 43.5C260 40.7 280 34.3 300 32.7C320 31 340 34 360 36.5C380 39 400 41 420 41.5C440 42 460 41 480 40.3C500 39.7 520 39.3 540 38.5C560 37.7 580 36.3 600 35.3C620 34.3 640 33.7 660 36.5C680 39.3 700 45.7 720 47.5C740 49.3 760 46.7 780 45C800 43.3 820 42.7 840 42.5C860 42.3 880 42.7 890 42.8L900 43L900 34L890 32.2C880 30.3 860 26.7 840 26.5C820 26.3 800 29.7 780 31.3C760 33 740 33 720 30.8C700 28.7 680 24.3 660 23C640 21.7 620 23.3 600 23.8C580 24.3 560 23.7 540 24.3C520 25 500 27 480 27.2C460 27.3 440 25.7 420 24.3C400 23 380 22 360 19.7C340 17.3 320 13.7 300 15.7C280 17.7 260 25.3 240 30C220 34.7 200 36.3 180 35.2C160 34 140 30 120 28.8C100 27.7 80 29.3 60 30.2C40 31 20 31 10 31L0 31Z" fill="#005e6a"></path><path d="M0 53L10 51.7C20 50.3 40 47.7 60 47.8C80 48 100 51 120 51.7C140 52.3 160 50.7 180 51.2C200 51.7 220 54.3 240 51.7C260 49 280 41 300 39.5C320 38 340 43 360 45.7C380 48.3 400 48.7 420 48.3C440 48 460 47 480 46C500 45 520 44 540 43.5C560 43 580 43 600 42.8C620 42.7 640 42.3 660 44.8C680 47.3 700 52.7 720 54.7C740 56.7 760 55.3 780 53.2C800 51 820 48 840 47.2C860 46.3 880 47.7 890 48.3L900 49L900 41L890 40.8C880 40.7 860 40.3 840 40.5C820 40.7 800 41.3 780 43C760 44.7 740 47.3 720 45.5C700 43.7 680 37.3 660 34.5C640 31.7 620 32.3 600 33.3C580 34.3 560 35.7 540 36.5C520 37.3 500 37.7 480 38.3C460 39 440 40 420 39.5C400 39 380 37 360 34.5C340 32 320 29 300 30.7C280 32.3 260 38.7 240 41.5C220 44.3 200 43.7 180 43C160 42.3 140 41.7 120 40.3C100 39 80 37 60 37.2C40 37.3 20 39.7 10 40.8L0 42Z" fill="#004355"></path><path d="M0 73L10 71.3C20 69.7 40 66.3 60 66.3C80 66.3 100 69.7 120 69.3C140 69 160 65 180 65.3C200 65.7 220 70.3 240 68.7C260 67 280 59 300 56.7C320 54.3 340 57.7 360 59C380 60.3 400 59.7 420 58.8C440 58 460 57 480 56.3C500 55.7 520 55.3 540 54.3C560 53.3 580 51.7 600 50.8C620 50 640 50 660 54.2C680 58.3 700 66.7 720 70.3C740 74 760 73 780 69.8C800 66.7 820 61.3 840 61.7C860 62 880 68 890 71L900 74L900 47L890 46.3C880 45.7 860 44.3 840 45.2C820 46 800 49 780 51.2C760 53.3 740 54.7 720 52.7C700 50.7 680 45.3 660 42.8C640 40.3 620 40.7 600 40.8C580 41 560 41 540 41.5C520 42 500 43 480 44C460 45 440 46 420 46.3C400 46.7 380 46.3 360 43.7C340 41 320 36 300 37.5C280 39 260 47 240 49.7C220 52.3 200 49.7 180 49.2C160 48.7 140 50.3 120 49.7C100 49 80 46 60 45.8C40 45.7 20 48.3 10 49.7L0 51Z" fill="#03293c"></path><path d="M0 81L10 81C20 81 40 81 60 81C80 81 100 81 120 81C140 81 160 81 180 81C200 81 220 81 240 81C260 81 280 81 300 81C320 81 340 81 360 81C380 81 400 81 420 81C440 81 460 81 480 81C500 81 520 81 540 81C560 81 580 81 600 81C620 81 640 81 660 81C680 81 700 81 720 81C740 81 760 81 780 81C800 81 820 81 840 81C860 81 880 81 890 81L900 81L900 72L890 69C880 66 860 60 840 59.7C820 59.3 800 64.7 780 67.8C760 71 740 72 720 68.3C700 64.7 680 56.3 660 52.2C640 48 620 48 600 48.8C580 49.7 560 51.3 540 52.3C520 53.3 500 53.7 480 54.3C460 55 440 56 420 56.8C400 57.7 380 58.3 360 57C340 55.7 320 52.3 300 54.7C280 57 260 65 240 66.7C220 68.3 200 63.7 180 63.3C160 63 140 67 120 67.3C100 67.7 80 64.3 60 64.3C40 64.3 20 67.7 10 69.3L0 71Z" fill="#001122"></path></svg>