<svg id="visual" viewBox="0 0 900 80" width="900" height="80" xmlns="http://www.w3.org/2000/svg" xmlns:xlink="http://www.w3.org/1999/xlink" version="1.1"><path d="M0 9L13.7 17.2C27.3 25.3 54.7 41.7 82 46.2C109.3 50.7 136.7 43.3 163.8 37.2C191 31 218 26 245.2 24.7C272.3 23.3 299.7 25.7 327 28.2C354.3 30.7 381.7 33.3 409 32.5C436.3 31.7 463.7 27.3 491 30.3C518.3 33.3 545.7 43.7 573 49.3C600.3 55 627.7 56 654.8 49.7C682 43.3 709 29.7 736.2 20.2C763.3 10.7 790.7 5.3 818 7.5C845.3 9.7 872.7 19.3 886.3 24.2L900 29L900 0L886.3 0C872.7 0 845.3 0 818 0C790.7 0 763.3 0 736.2 0C709 0 682 0 654.8 0C627.7 0 600.3 0 573 0C545.7 0 518.3 0 491 0C463.7 0 436.3 0 409 0C381.7 0 354.3 0 327 0C299.7 0 272.3 0 245.2 0C218 0 191 0 163.8 0C136.7 0 109.3 0 82 0C54.7 0 27.3 0 13.7 0L0 0Z" fill="#001122"></path><path d="M0 62L13.7 63.3C27.3 64.7 54.7 67.3 82 64.2C109.3 61 136.7 52 163.8 53C191 54 218 65 245.2 68.3C272.3 71.7 299.7 67.3 327 63.3C354.3 59.3 381.7 55.7 409 53.3C436.3 51 463.7 50 491 51.2C518.3 52.3 545.7 55.7 573 59.3C600.3 63 627.7 67 654.8 67C682 67 709 63 736.2 60.2C763.3 57.3 790.7 55.7 818 55C845.3 54.3 872.7 54.7 886.3 54.8L900 55L900 27L886.3 22.5C872.7 18 845.3 9 818 6.8C790.7 4.7 763.3 9.3 736.2 18.5C709 27.7 682 41.3 654.8 47.7C627.7 54 600.3 53 573 47.3C545.7 41.7 518.3 31.3 491 28.3C463.7 25.3 436.3 29.7 409 30.5C381.7 31.3 354.3 28.7 327 26.2C299.7 23.7 272.3 21.3 245.2 22.7C218 24 191 29 163.8 35.2C136.7 41.3 109.3 48.7 82 44.2C54.7 39.7 27.3 23.3 13.7 15.2L0 7Z" fill="#009473"></path><path d="M0 81L13.7 81C27.3 81 54.7 81 82 81C109.3 81 136.7 81 163.8 81C191 81 218 81 245.2 81C272.3 81 299.7 81 327 81C354.3 81 381.7 81 409 81C436.3 81 463.7 81 491 81C518.3 81 545.7 81 573 81C600.3 81 627.7 81 654.8 81C682 81 709 81 736.2 81C763.3 81 790.7 81 818 81C845.3 81 872.7 81 886.3 81L900 81L900 53L886.3 52.8C872.7 52.7 845.3 52.3 818 53C790.7 53.7 763.3 55.3 736.2 58.2C709 61 682 65 654.8 65C627.7 65 600.3 61 573 57.3C545.7 53.7 518.3 50.3 491 49.2C463.7 48 436.3 49 409 51.3C381.7 53.7 354.3 57.3 327 61.3C299.7 65.3 272.3 69.7 245.2 66.3C218 63 191 52 163.8 51C136.7 50 109.3 59 82 62.2C54.7 65.3 27.3 62.7 13.7 61.3L0 60Z" fill="#001122"></path></svg>