<svg id="visual" viewBox="0 0 900 80" width="900" height="80" xmlns="http://www.w3.org/2000/svg" xmlns:xlink="http://www.w3.org/1999/xlink" version="1.1"><path d="M0 15L13.7 13.5C27.3 12 54.7 9 82 7.8C109.3 6.7 136.7 7.3 163.8 8.2C191 9 218 10 245.2 11.3C272.3 12.7 299.7 14.3 327 14.5C354.3 14.7 381.7 13.3 409 11.2C436.3 9 463.7 6 491 4.7C518.3 3.3 545.7 3.7 573 4.3C600.3 5 627.7 6 654.8 7.3C682 8.7 709 10.3 736.2 11.7C763.3 13 790.7 14 818 13.7C845.3 13.3 872.7 11.7 886.3 10.8L900 10L900 0L886.3 0C872.7 0 845.3 0 818 0C790.7 0 763.3 0 736.2 0C709 0 682 0 654.8 0C627.7 0 600.3 0 573 0C545.7 0 518.3 0 491 0C463.7 0 436.3 0 409 0C381.7 0 354.3 0 327 0C299.7 0 272.3 0 245.2 0C218 0 191 0 163.8 0C136.7 0 109.3 0 82 0C54.7 0 27.3 0 13.7 0L0 0Z" fill="#009473"></path><path d="M0 36L13.7 33C27.3 30 54.7 24 82 22.7C109.3 21.3 136.7 24.7 163.8 27.2C191 29.7 218 31.3 245.2 31.3C272.3 31.3 299.7 29.7 327 30C354.3 30.3 381.7 32.7 409 31.8C436.3 31 463.7 27 491 23C518.3 19 545.7 15 573 15.5C600.3 16 627.7 21 654.8 26.2C682 31.3 709 36.7 736.2 37.5C763.3 38.3 790.7 34.7 818 32.2C845.3 29.7 872.7 28.3 886.3 27.7L900 27L900 8L886.3 8.8C872.7 9.7 845.3 11.3 818 11.7C790.7 12 763.3 11 736.2 9.7C709 8.3 682 6.7 654.8 5.3C627.7 4 600.3 3 573 2.3C545.7 1.7 518.3 1.3 491 2.7C463.7 4 436.3 7 409 9.2C381.7 11.3 354.3 12.7 327 12.5C299.7 12.3 272.3 10.7 245.2 9.3C218 8 191 7 163.8 6.2C136.7 5.3 109.3 4.7 82 5.8C54.7 7 27.3 10 13.7 11.5L0 13Z" fill="#007975"></path><path d="M0 47L13.7 46.3C27.3 45.7 54.7 44.3 82 42.7C109.3 41 136.7 39 163.8 40.3C191 41.7 218 46.3 245.2 45.2C272.3 44 299.7 37 327 34.3C354.3 31.7 381.7 33.3 409 36.8C436.3 40.3 463.7 45.7 491 44.2C518.3 42.7 545.7 34.3 573 32.2C600.3 30 627.7 34 654.8 38.5C682 43 709 48 736.2 49.8C763.3 51.7 790.7 50.3 818 49.3C845.3 48.3 872.7 47.7 886.3 47.3L900 47L900 25L886.3 25.7C872.7 26.3 845.3 27.7 818 30.2C790.7 32.7 763.3 36.3 736.2 35.5C709 34.7 682 29.3 654.8 24.2C627.7 19 600.3 14 573 13.5C545.7 13 518.3 17 491 21C463.7 25 436.3 29 409 29.8C381.7 30.7 354.3 28.3 327 28C299.7 27.7 272.3 29.3 245.2 29.3C218 29.3 191 27.7 163.8 25.2C136.7 22.7 109.3 19.3 82 20.7C54.7 22 27.3 28 13.7 31L0 34Z" fill="#005e6a"></path><path d="M0 59L13.7 58.3C27.3 57.7 54.7 56.3 82 54.5C109.3 52.7 136.7 50.3 163.8 51.5C191 52.7 218 57.3 245.2 55.8C272.3 54.3 299.7 46.7 327 43.5C354.3 40.3 381.7 41.7 409 44.3C436.3 47 463.7 51 491 51.7C518.3 52.3 545.7 49.7 573 49.5C600.3 49.3 627.7 51.7 654.8 54.8C682 58 709 62 736.2 61.3C763.3 60.7 790.7 55.3 818 55.7C845.3 56 872.7 62 886.3 65L900 68L900 45L886.3 45.3C872.7 45.7 845.3 46.3 818 47.3C790.7 48.3 763.3 49.7 736.2 47.8C709 46 682 41 654.8 36.5C627.7 32 600.3 28 573 30.2C545.7 32.3 518.3 40.7 491 42.2C463.7 43.7 436.3 38.3 409 34.8C381.7 31.3 354.3 29.7 327 32.3C299.7 35 272.3 42 245.2 43.2C218 44.3 191 39.7 163.8 38.3C136.7 37 109.3 39 82 40.7C54.7 42.3 27.3 43.7 13.7 44.3L0 45Z" fill="#004355"></path><path d="M0 75L13.7 73.3C27.3 71.7 54.7 68.3 82 64.7C109.3 61 136.7 57 163.8 58.7C191 60.3 218 67.7 245.2 65.5C272.3 63.3 299.7 51.7 327 48.8C354.3 46 381.7 52 409 55.7C436.3 59.3 463.7 60.7 491 60.2C518.3 59.7 545.7 57.3 573 58.5C600.3 59.7 627.7 64.3 654.8 67.5C682 70.7 709 72.3 736.2 70.3C763.3 68.3 790.7 62.7 818 62.2C845.3 61.7 872.7 66.3 886.3 68.7L900 71L900 66L886.3 63C872.7 60 845.3 54 818 53.7C790.7 53.3 763.3 58.7 736.2 59.3C709 60 682 56 654.8 52.8C627.7 49.7 600.3 47.3 573 47.5C545.7 47.7 518.3 50.3 491 49.7C463.7 49 436.3 45 409 42.3C381.7 39.7 354.3 38.3 327 41.5C299.7 44.7 272.3 52.3 245.2 53.8C218 55.3 191 50.7 163.8 49.5C136.7 48.3 109.3 50.7 82 52.5C54.7 54.3 27.3 55.7 13.7 56.3L0 57Z" fill="#03293c"></path><path d="M0 81L13.7 81C27.3 81 54.7 81 82 81C109.3 81 136.7 81 163.8 81C191 81 218 81 245.2 81C272.3 81 299.7 81 327 81C354.3 81 381.7 81 409 81C436.3 81 463.7 81 491 81C518.3 81 545.7 81 573 81C600.3 81 627.7 81 654.8 81C682 81 709 81 736.2 81C763.3 81 790.7 81 818 81C845.3 81 872.7 81 886.3 81L900 81L900 69L886.3 66.7C872.7 64.3 845.3 59.7 818 60.2C790.7 60.7 763.3 66.3 736.2 68.3C709 70.3 682 68.7 654.8 65.5C627.7 62.3 600.3 57.7 573 56.5C545.7 55.3 518.3 57.7 491 58.2C463.7 58.7 436.3 57.3 409 53.7C381.7 50 354.3 44 327 46.8C299.7 49.7 272.3 61.3 245.2 63.5C218 65.7 191 58.3 163.8 56.7C136.7 55 109.3 59 82 62.7C54.7 66.3 27.3 69.7 13.7 71.3L0 73Z" fill="#001122"></path></svg>