<svg id="visual" viewBox="0 0 900 80" width="900" height="80" xmlns="http://www.w3.org/2000/svg" xmlns:xlink="http://www.w3.org/1999/xlink" version="1.1"><path d="M0 5L21.5 4.2C43 3.3 86 1.7 128.8 9.3C171.7 17 214.3 34 257.2 34.3C300 34.7 343 18.3 385.8 13.7C428.7 9 471.3 16 514.2 21.7C557 27.3 600 31.7 642.8 34C685.7 36.3 728.3 36.7 771.2 34C814 31.3 857 25.7 878.5 22.8L900 20L900 0L878.5 0C857 0 814 0 771.2 0C728.3 0 685.7 0 642.8 0C600 0 557 0 514.2 0C471.3 0 428.7 0 385.8 0C343 0 300 0 257.2 0C214.3 0 171.7 0 128.8 0C86 0 43 0 21.5 0L0 0Z" fill="#001122"></path><path d="M0 27L21.5 30.2C43 33.3 86 39.7 128.8 43.8C171.7 48 214.3 50 257.2 48.2C300 46.3 343 40.7 385.8 39.8C428.7 39 471.3 43 514.2 46.3C557 49.7 600 52.3 642.8 52.2C685.7 52 728.3 49 771.2 47C814 45 857 44 878.5 43.5L900 43L900 18L878.5 20.8C857 23.7 814 29.3 771.2 32C728.3 34.7 685.7 34.3 642.8 32C600 29.7 557 25.3 514.2 19.7C471.3 14 428.7 7 385.8 11.7C343 16.3 300 32.7 257.2 32.7C214.3 32.7 171.7 16.3 128.8 8.7C86 1 43 2 21.5 2.5L0 3Z" fill="#022f42"></path><path d="M0 44L21.5 45.2C43 46.3 86 48.7 128.8 50.8C171.7 53 214.3 55 257.2 52.3C300 49.7 343 42.3 385.8 42.7C428.7 43 471.3 51 514.2 55.5C557 60 600 61 642.8 58.8C685.7 56.7 728.3 51.3 771.2 49.3C814 47.3 857 48.7 878.5 49.3L900 50L900 41L878.5 41.5C857 42 814 43 771.2 45C728.3 47 685.7 50 642.8 50.2C600 50.3 557 47.7 514.2 44.3C471.3 41 428.7 37 385.8 37.8C343 38.7 300 44.3 257.2 46.2C214.3 48 171.7 46 128.8 41.8C86 37.7 43 31.3 21.5 28.2L0 25Z" fill="#005060"></path><path d="M0 64L21.5 64.5C43 65 86 66 128.8 68.5C171.7 71 214.3 75 257.2 72.3C300 69.7 343 60.3 385.8 60.2C428.7 60 471.3 69 514.2 72.2C557 75.3 600 72.7 642.8 70.8C685.7 69 728.3 68 771.2 67.5C814 67 857 67 878.5 67L900 67L900 48L878.5 47.3C857 46.7 814 45.3 771.2 47.3C728.3 49.3 685.7 54.7 642.8 56.8C600 59 557 58 514.2 53.5C471.3 49 428.7 41 385.8 40.7C343 40.3 300 47.7 257.2 50.3C214.3 53 171.7 51 128.8 48.8C86 46.7 43 44.3 21.5 43.2L0 42Z" fill="#007274"></path><path d="M0 81L21.5 81C43 81 86 81 128.8 81C171.7 81 214.3 81 257.2 81C300 81 343 81 385.8 81C428.7 81 471.3 81 514.2 81C557 81 600 81 642.8 81C685.7 81 728.3 81 771.2 81C814 81 857 81 878.5 81L900 81L900 65L878.5 65C857 65 814 65 771.2 65.5C728.3 66 685.7 67 642.8 68.8C600 70.7 557 73.3 514.2 70.2C471.3 67 428.7 58 385.8 58.2C343 58.3 300 67.7 257.2 70.3C214.3 73 171.7 69 128.8 66.5C86 64 43 63 21.5 62.5L0 62Z" fill="#009473"></path></svg>