<svg id="visual" viewBox="0 0 900 100" width="900" height="100" xmlns="http://www.w3.org/2000/svg" xmlns:xlink="http://www.w3.org/1999/xlink" version="1.1"><rect x="0" y="0" width="900" height="100" fill="#001220"></rect><path d="M0 59L25 56.5C50 54 100 49 150 51.2C200 53.3 250 62.7 300 65.2C350 67.7 400 63.3 450 63.2C500 63 550 67 600 67.7C650 68.3 700 65.7 750 63.5C800 61.3 850 59.7 875 58.8L900 58L900 0L875 0C850 0 800 0 750 0C700 0 650 0 600 0C550 0 500 0 450 0C400 0 350 0 300 0C250 0 200 0 150 0C100 0 50 0 25 0L0 0Z" fill="#715df2"></path><path d="M0 50L25 48C50 46 100 42 150 38.2C200 34.3 250 30.7 300 33.7C350 36.7 400 46.3 450 48.5C500 50.7 550 45.3 600 43.2C650 41 700 42 750 39.5C800 37 850 31 875 28L900 25L900 0L875 0C850 0 800 0 750 0C700 0 650 0 600 0C550 0 500 0 450 0C400 0 350 0 300 0C250 0 200 0 150 0C100 0 50 0 25 0L0 0Z" fill="#2649ae"></path><path d="M0 36L25 37.5C50 39 100 42 150 41.8C200 41.7 250 38.3 300 35.5C350 32.7 400 30.3 450 28C500 25.7 550 23.3 600 24.7C650 26 700 31 750 34.7C800 38.3 850 40.7 875 41.8L900 43L900 0L875 0C850 0 800 0 750 0C700 0 650 0 600 0C550 0 500 0 450 0C400 0 350 0 300 0C250 0 200 0 150 0C100 0 50 0 25 0L0 0Z" fill="#002f66"></path><path d="M0 23L25 22.8C50 22.7 100 22.3 150 21.5C200 20.7 250 19.3 300 17.7C350 16 400 14 450 13C500 12 550 12 600 11.8C650 11.7 700 11.3 750 13.5C800 15.7 850 20.3 875 22.7L900 25L900 0L875 0C850 0 800 0 750 0C700 0 650 0 600 0C550 0 500 0 450 0C400 0 350 0 300 0C250 0 200 0 150 0C100 0 50 0 25 0L0 0Z" fill="#001122"></path></svg>