<svg id="visual" viewBox="0 0 900 100" width="900" height="100" xmlns="http://www.w3.org/2000/svg" xmlns:xlink="http://www.w3.org/1999/xlink" version="1.1"><rect x="0" y="0" width="900" height="100" fill="#001220"></rect><path d="M0 40L9.3 36.8C18.7 33.7 37.3 27.3 56.2 24.3C75 21.3 94 21.7 112.8 22.2C131.7 22.7 150.3 23.3 169 24C187.7 24.7 206.3 25.3 225 28.8C243.7 32.3 262.3 38.7 281.2 39.7C300 40.7 319 36.3 337.8 33.3C356.7 30.3 375.3 28.7 394 29.8C412.7 31 431.3 35 450 35.7C468.7 36.3 487.3 33.7 506.2 34.7C525 35.7 544 40.3 562.8 39.5C581.7 38.7 600.3 32.3 619 30C637.7 27.7 656.3 29.3 675 30.8C693.7 32.3 712.3 33.7 731.2 33.8C750 34 769 33 787.8 30.5C806.7 28 825.3 24 844 23.5C862.7 23 881.3 26 890.7 27.5L900 29L900 101L890.7 101C881.3 101 862.7 101 844 101C825.3 101 806.7 101 787.8 101C769 101 750 101 731.2 101C712.3 101 693.7 101 675 101C656.3 101 637.7 101 619 101C600.3 101 581.7 101 562.8 101C544 101 525 101 506.2 101C487.3 101 468.7 101 450 101C431.3 101 412.7 101 394 101C375.3 101 356.7 101 337.8 101C319 101 300 101 281.2 101C262.3 101 243.7 101 225 101C206.3 101 187.7 101 169 101C150.3 101 131.7 101 112.8 101C94 101 75 101 56.2 101C37.3 101 18.7 101 9.3 101L0 101Z" fill="#001122"></path><path d="M0 40L9.3 43C18.7 46 37.3 52 56.2 52.5C75 53 94 48 112.8 46.2C131.7 44.3 150.3 45.7 169 45.7C187.7 45.7 206.3 44.3 225 46.5C243.7 48.7 262.3 54.3 281.2 54C300 53.7 319 47.3 337.8 46.5C356.7 45.7 375.3 50.3 394 52.8C412.7 55.3 431.3 55.7 450 56.3C468.7 57 487.3 58 506.2 55.8C525 53.7 544 48.3 562.8 47.2C581.7 46 600.3 49 619 48.7C637.7 48.3 656.3 44.7 675 42.3C693.7 40 712.3 39 731.2 39C750 39 769 40 787.8 40.8C806.7 41.7 825.3 42.3 844 45.2C862.7 48 881.3 53 890.7 55.5L900 58L900 101L890.7 101C881.3 101 862.7 101 844 101C825.3 101 806.7 101 787.8 101C769 101 750 101 731.2 101C712.3 101 693.7 101 675 101C656.3 101 637.7 101 619 101C600.3 101 581.7 101 562.8 101C544 101 525 101 506.2 101C487.3 101 468.7 101 450 101C431.3 101 412.7 101 394 101C375.3 101 356.7 101 337.8 101C319 101 300 101 281.2 101C262.3 101 243.7 101 225 101C206.3 101 187.7 101 169 101C150.3 101 131.7 101 112.8 101C94 101 75 101 56.2 101C37.3 101 18.7 101 9.3 101L0 101Z" fill="#003067"></path><path d="M0 61L9.3 61C18.7 61 37.3 61 56.2 61.8C75 62.7 94 64.3 112.8 65C131.7 65.7 150.3 65.3 169 66C187.7 66.7 206.3 68.3 225 68.3C243.7 68.3 262.3 66.7 281.2 64.2C300 61.7 319 58.3 337.8 57.7C356.7 57 375.3 59 394 61.2C412.7 63.3 431.3 65.7 450 67C468.7 68.3 487.3 68.7 506.2 68.3C525 68 544 67 562.8 65.7C581.7 64.3 600.3 62.7 619 62.8C637.7 63 656.3 65 675 65.3C693.7 65.7 712.3 64.3 731.2 65.5C750 66.7 769 70.3 787.8 71.2C806.7 72 825.3 70 844 69.2C862.7 68.3 881.3 68.7 890.7 68.8L900 69L900 101L890.7 101C881.3 101 862.7 101 844 101C825.3 101 806.7 101 787.8 101C769 101 750 101 731.2 101C712.3 101 693.7 101 675 101C656.3 101 637.7 101 619 101C600.3 101 581.7 101 562.8 101C544 101 525 101 506.2 101C487.3 101 468.7 101 450 101C431.3 101 412.7 101 394 101C375.3 101 356.7 101 337.8 101C319 101 300 101 281.2 101C262.3 101 243.7 101 225 101C206.3 101 187.7 101 169 101C150.3 101 131.7 101 112.8 101C94 101 75 101 56.2 101C37.3 101 18.7 101 9.3 101L0 101Z" fill="#004cb1"></path><path d="M0 75L9.3 76.5C18.7 78 37.3 81 56.2 81.2C75 81.3 94 78.7 112.8 77.2C131.7 75.7 150.3 75.3 169 77.2C187.7 79 206.3 83 225 83.2C243.7 83.3 262.3 79.7 281.2 78.2C300 76.7 319 77.3 337.8 77.7C356.7 78 375.3 78 394 79C412.7 80 431.3 82 450 81.8C468.7 81.7 487.3 79.3 506.2 78C525 76.7 544 76.3 562.8 77.8C581.7 79.3 600.3 82.7 619 82.7C637.7 82.7 656.3 79.3 675 79.3C693.7 79.3 712.3 82.7 731.2 82.8C750 83 769 80 787.8 79.8C806.7 79.7 825.3 82.3 844 83.5C862.7 84.7 881.3 84.3 890.7 84.2L900 84L900 101L890.7 101C881.3 101 862.7 101 844 101C825.3 101 806.7 101 787.8 101C769 101 750 101 731.2 101C712.3 101 693.7 101 675 101C656.3 101 637.7 101 619 101C600.3 101 581.7 101 562.8 101C544 101 525 101 506.2 101C487.3 101 468.7 101 450 101C431.3 101 412.7 101 394 101C375.3 101 356.7 101 337.8 101C319 101 300 101 281.2 101C262.3 101 243.7 101 225 101C206.3 101 187.7 101 169 101C150.3 101 131.7 101 112.8 101C94 101 75 101 56.2 101C37.3 101 18.7 101 9.3 101L0 101Z" fill="#0066ff"></path></svg>